<svg width="331" height="299" viewBox="0 0 331 299" fill="none" xmlns="http://www.w3.org/2000/svg">
<path fill-rule="evenodd" clip-rule="evenodd" d="M92.3938 187.49C91.6848 187.226 89.2162 188.723 89.1811 188.985C88.8806 191.224 88.0822 193.36 87.5744 195.562C86.0677 202.111 83.2959 208.393 82.1123 214.997C81.8283 216.583 80.6016 219.661 81.4701 221.277C81.9488 222.167 95.4119 223.85 96.573 222.772C101.253 218.415 99.1429 202.844 99.1429 197.057C99.1429 195.422 99.9658 191.415 99.1429 189.882C98.1274 187.994 94.9432 188.439 92.3938 187.49Z" fill="#8E887E" fill-opacity="0.24"/>
<path fill-rule="evenodd" clip-rule="evenodd" d="M288.964 35.8832C288.256 35.619 285.786 37.1157 285.751 37.378C285.451 39.6174 284.653 41.7526 284.145 43.9552C282.638 50.5035 279.867 56.7856 278.683 63.3899C278.399 64.9754 277.172 68.0536 278.04 69.67C278.519 70.5595 291.982 72.243 293.143 71.165C297.824 66.8074 295.714 51.2365 295.714 45.45C295.714 43.8144 296.537 39.8083 295.714 38.2749C294.698 36.3866 291.514 36.8322 288.964 35.8832Z" fill="#8E887E" fill-opacity="0.24"/>
<path fill-rule="evenodd" clip-rule="evenodd" d="M288.964 187.808C288.256 187.543 285.786 189.04 285.751 189.303C285.451 191.542 284.653 193.677 284.145 195.88C282.638 202.428 279.867 208.71 278.683 215.314C278.399 216.9 277.172 219.978 278.04 221.594C278.519 222.484 291.982 224.168 293.143 223.09C297.824 218.732 295.714 203.161 295.714 197.375C295.714 195.739 296.537 191.733 295.714 190.199C294.698 188.311 291.514 188.757 288.964 187.808Z" fill="#8E887E" fill-opacity="0.24"/>
<path fill-rule="evenodd" clip-rule="evenodd" d="M214.228 139.723C213.519 139.459 211.05 140.956 211.015 141.218C210.715 143.457 209.916 145.592 209.408 147.795C207.902 154.344 205.13 160.626 203.946 167.23C203.662 168.815 202.436 171.894 203.304 173.51C203.783 174.4 217.246 176.083 218.406 175.005C223.087 170.647 220.977 155.076 220.977 149.29C220.977 147.655 221.8 143.648 220.977 142.115C219.961 140.226 216.777 140.672 214.228 139.723Z" fill="#8E887E" fill-opacity="0.24"/>
<path fill-rule="evenodd" clip-rule="evenodd" d="M214.228 83.8602C213.519 83.596 211.05 85.0929 211.015 85.3553C210.715 87.5944 209.916 89.7301 209.408 91.9323C207.902 98.481 205.13 104.763 203.946 111.367C203.662 112.953 202.436 116.031 203.304 117.647C203.783 118.537 217.246 120.22 218.406 119.142C223.087 114.785 220.977 99.214 220.977 93.4273C220.977 91.7919 221.8 87.7854 220.977 86.2522C219.961 84.3641 216.777 84.8095 214.228 83.8602Z" fill="#8E887E" fill-opacity="0.24"/>
<path fill-rule="evenodd" clip-rule="evenodd" d="M265.253 139.723C264.544 139.459 262.076 140.956 262.04 141.218C261.74 143.457 260.942 145.593 260.434 147.795C258.927 154.344 256.155 160.626 254.972 167.23C254.688 168.815 253.461 171.894 254.33 173.51C254.808 174.4 268.271 176.083 269.432 175.005C274.113 170.647 272.002 155.077 272.002 149.29C272.002 147.655 272.825 143.648 272.002 142.115C270.987 140.227 267.803 140.672 265.253 139.723Z" fill="#8E887E" fill-opacity="0.24"/>
<path fill-rule="evenodd" clip-rule="evenodd" d="M214.228 239.932C213.519 239.668 211.05 241.165 211.015 241.427C210.715 243.666 209.916 245.801 209.408 248.004C207.902 254.552 205.13 260.835 203.946 267.439C203.662 269.024 202.436 272.103 203.304 273.719C203.783 274.608 217.246 276.292 218.406 275.214C223.087 270.856 220.977 255.285 220.977 249.499C220.977 247.863 221.8 243.857 220.977 242.324C219.961 240.435 216.777 240.881 214.228 239.932Z" fill="#8E887E" fill-opacity="0.24"/>
<path fill-rule="evenodd" clip-rule="evenodd" d="M146.482 141.318C145.558 141.318 143.462 142.385 143.377 143.014C142.961 146.113 142.72 149.439 142.413 152.583C141.854 158.321 141.128 164.157 141.128 169.924C141.128 170.542 140.471 175.292 141.128 175.904C141.953 176.671 147.844 175.904 148.841 175.904C149.42 175.904 152.574 176.708 153.018 176.502C154.15 175.975 153.339 169.064 153.339 168.129V148.395C153.339 147.193 153.157 142.246 152.375 141.519C150.928 140.175 149.527 141.318 146.482 141.318Z" fill="#8E887E" fill-opacity="0.24"/>
<path fill-rule="evenodd" clip-rule="evenodd" d="M146.482 85.4557C145.558 85.4557 143.462 86.522 143.377 87.1509C142.961 90.2506 142.72 93.5758 142.413 96.7199C141.854 102.458 141.128 108.295 141.128 114.062C141.128 114.679 140.471 119.429 141.128 120.041C141.953 120.809 147.844 120.041 148.841 120.041C149.42 120.041 152.574 120.846 153.018 120.639C154.15 120.112 153.339 113.202 153.339 112.266V92.5323C153.339 91.3311 153.157 86.3834 152.375 85.6565C150.928 84.3118 149.527 85.4557 146.482 85.4557Z" fill="#8E887E" fill-opacity="0.24"/>
<path fill-rule="evenodd" clip-rule="evenodd" d="M146.482 241.528C145.558 241.528 143.462 242.594 143.377 243.223C142.961 246.323 142.72 249.648 142.413 252.792C141.854 258.53 141.128 264.366 141.128 270.133C141.128 270.751 140.471 275.501 141.128 276.113C141.953 276.88 147.844 276.113 148.841 276.113C149.42 276.113 152.574 276.917 153.018 276.711C154.15 276.184 153.339 269.274 153.339 268.338V248.604C153.339 247.402 153.157 242.455 152.375 241.728C150.928 240.384 149.527 241.528 146.482 241.528Z" fill="#8E887E" fill-opacity="0.24"/>
<path fill-rule="evenodd" clip-rule="evenodd" d="M208.644 36.1427C207.72 36.1427 205.624 37.2093 205.539 37.8381C205.123 40.9377 204.882 44.263 204.575 47.4069C204.016 53.1451 203.29 58.9817 203.29 64.7488C203.29 65.3661 202.633 70.1167 203.29 70.7283C204.115 71.4959 210.006 70.7283 211.003 70.7283C211.581 70.7283 214.736 71.5322 215.18 71.3259C216.312 70.7992 215.501 63.8883 215.501 62.9532V43.2195C215.501 42.0179 215.319 37.0705 214.537 36.3433C213.09 34.9989 211.689 36.1427 208.644 36.1427Z" fill="#8E887E" fill-opacity="0.24"/>
<path fill-rule="evenodd" clip-rule="evenodd" d="M208.644 188.067C207.72 188.067 205.624 189.134 205.539 189.763C205.123 192.862 204.882 196.187 204.575 199.332C204.016 205.07 203.29 210.906 203.29 216.673C203.29 217.29 202.633 222.041 203.29 222.653C204.115 223.42 210.006 222.653 211.003 222.653C211.581 222.653 214.736 223.457 215.18 223.25C216.312 222.724 215.501 215.813 215.501 214.878V195.144C215.501 193.942 215.319 188.995 214.537 188.268C213.09 186.923 211.689 188.067 208.644 188.067Z" fill="#8E887E" fill-opacity="0.24"/>
<path fill-rule="evenodd" clip-rule="evenodd" d="M262.503 36.1427C261.579 36.1427 259.483 37.2093 259.398 37.8381C258.982 40.9377 258.741 44.263 258.435 47.4069C257.875 53.1451 257.15 58.9817 257.15 64.7489C257.15 65.3661 256.492 70.1167 257.15 70.7278C257.974 71.4959 263.866 70.7278 264.863 70.7278C265.44 70.7278 268.596 71.5323 269.039 71.3259C270.171 70.7992 269.36 63.8883 269.36 62.9533V43.2195C269.36 42.0178 269.178 37.0705 268.396 36.3433C266.95 34.9989 265.548 36.1427 262.503 36.1427Z" fill="#8E887E" fill-opacity="0.24"/>
<path fill-rule="evenodd" clip-rule="evenodd" d="M120.247 241.681C119.323 241.681 117.227 242.748 117.143 243.377C116.726 246.476 116.485 249.802 116.179 252.946C115.619 258.684 114.894 264.52 114.894 270.287C114.894 270.904 114.236 275.655 114.894 276.267C115.719 277.034 121.61 276.267 122.607 276.267C123.185 276.267 126.34 277.071 126.783 276.865C127.915 276.338 127.104 269.427 127.104 268.492V248.758C127.104 247.556 126.922 242.609 126.14 241.882C124.694 240.538 123.293 241.681 120.247 241.681Z" fill="#8E887E" fill-opacity="0.24"/>
<path fill-rule="evenodd" clip-rule="evenodd" d="M262.503 188.067C261.579 188.067 259.483 189.133 259.398 189.762C258.982 192.861 258.741 196.187 258.435 199.331C257.875 205.069 257.15 210.906 257.15 216.673C257.15 217.29 256.492 222.041 257.15 222.652C257.974 223.42 263.866 222.652 264.863 222.652C265.44 222.652 268.596 223.456 269.039 223.25C270.171 222.723 269.36 215.812 269.36 214.877V195.144C269.36 193.942 269.178 188.994 268.396 188.267C266.95 186.923 265.548 188.067 262.503 188.067Z" fill="#8E887E" fill-opacity="0.24"/>
<path fill-rule="evenodd" clip-rule="evenodd" d="M46.0935 36.1427C45.169 36.1427 43.0734 37.2093 42.9884 37.8381C42.5717 40.9377 42.3313 44.263 42.0245 47.4069C41.4648 53.1451 40.7393 58.9817 40.7393 64.7489C40.7393 65.3661 40.0822 70.1167 40.7393 70.7278C41.5643 71.4959 47.4553 70.7278 48.4524 70.7278C49.0307 70.7278 52.1855 71.5323 52.6291 71.3259C53.7609 70.7992 52.9504 63.8883 52.9504 62.9533V43.2195C52.9504 42.0178 52.768 37.0705 51.9865 36.3433C50.5397 34.9989 49.1385 36.1427 46.0935 36.1427Z" fill="#8E887E" fill-opacity="0.24"/>
<path fill-rule="evenodd" clip-rule="evenodd" d="M46.0935 188.067C45.169 188.067 43.0734 189.133 42.9884 189.762C42.5717 192.861 42.3313 196.187 42.0245 199.331C41.4648 205.069 40.7393 210.906 40.7393 216.673C40.7393 217.29 40.0822 222.041 40.7393 222.652C41.5643 223.42 47.4553 222.652 48.4524 222.652C49.0307 222.652 52.1855 223.456 52.6291 223.25C53.7609 222.723 52.9504 215.812 52.9504 214.877V195.144C52.9504 193.942 52.768 188.994 51.9865 188.267C50.5397 186.923 49.1385 188.067 46.0935 188.067Z" fill="#8E887E" fill-opacity="0.24"/>
<path fill-rule="evenodd" clip-rule="evenodd" d="M162.762 141.03C166.777 136.8 171.783 140.26 172.917 141.315C173.752 142.093 172.917 148.315 172.917 149.389C172.917 156.948 174.185 165.016 172.595 172.412C172.296 173.796 172.324 177.471 170.989 178.092C169.455 178.806 162.762 178.329 161.992 176.896C161.085 175.206 162.66 171.671 162.956 170.02C163.939 164.525 162.762 140.951 162.762 141.03Z" fill="#8E887E" fill-opacity="0.24"/>
<path fill-rule="evenodd" clip-rule="evenodd" d="M88.9834 84.2947C92.9984 80.0652 98.0045 83.5253 99.1385 84.5805C99.9733 85.3573 99.1385 91.5801 99.1385 92.6544C99.1385 100.213 100.407 108.282 98.8167 115.676C98.5182 117.062 98.5453 120.736 97.2107 121.357C95.6769 122.07 88.9834 121.594 88.2142 120.161C87.3066 118.472 88.8815 114.936 89.178 113.285C90.1604 107.79 88.9834 84.2158 88.9834 84.2947Z" fill="#8E887E" fill-opacity="0.24"/>
<path fill-rule="evenodd" clip-rule="evenodd" d="M88.9834 240.366C92.9984 236.136 98.0045 239.597 99.1385 240.651C99.9733 241.429 99.1385 247.651 99.1385 248.725C99.1385 256.285 100.407 264.353 98.8167 271.748C98.5182 273.133 98.5453 276.807 97.2107 277.428C95.6769 278.142 88.9834 277.666 88.2142 276.232C87.3066 274.543 88.8815 271.007 89.178 269.356C90.1604 263.861 88.9834 240.287 88.9834 240.366Z" fill="#8E887E" fill-opacity="0.24"/>
<path fill-rule="evenodd" clip-rule="evenodd" d="M305.329 36.7271C309.344 32.4972 314.35 35.9575 315.484 37.0125C316.319 37.7899 315.484 44.0122 315.484 45.0865C315.484 52.6455 316.753 60.7137 315.162 68.1087C314.864 69.4934 314.891 73.1679 313.556 73.7888C312.022 74.5027 305.329 74.0266 304.56 72.5931C303.652 70.9035 305.227 67.3682 305.524 65.7167C306.506 60.2218 305.329 36.648 305.329 36.7271Z" fill="#8E887E" fill-opacity="0.24"/>
<path fill-rule="evenodd" clip-rule="evenodd" d="M305.329 188.651C309.344 184.421 314.35 187.882 315.484 188.937C316.319 189.714 315.484 195.936 315.484 197.011C315.484 204.57 316.753 212.638 315.162 220.033C314.864 221.418 314.891 225.092 313.556 225.713C312.022 226.427 305.329 225.951 304.56 224.517C303.652 222.828 305.227 219.292 305.524 217.641C306.506 212.146 305.329 188.573 305.329 188.651Z" fill="#8E887E" fill-opacity="0.24"/>
<path fill-rule="evenodd" clip-rule="evenodd" d="M231.194 85.1676C235.21 80.9375 240.215 84.3982 241.349 85.4528C242.184 86.2302 241.349 92.4524 241.349 93.5267C241.349 101.086 242.617 109.154 241.028 116.549C240.729 117.934 240.757 121.608 239.421 122.229C237.887 122.943 231.195 122.467 230.425 121.034C229.517 119.344 231.093 115.809 231.389 114.158C232.372 108.662 231.194 85.0887 231.194 85.1676Z" fill="#8E887E" fill-opacity="0.24"/>
<path fill-rule="evenodd" clip-rule="evenodd" d="M231.194 241.239C235.21 237.009 240.215 240.469 241.349 241.524C242.184 242.302 241.349 248.524 241.349 249.598C241.349 257.157 242.617 265.225 241.028 272.621C240.729 274.005 240.757 277.68 239.421 278.301C237.887 279.015 231.195 278.538 230.425 277.105C229.517 275.415 231.093 271.88 231.389 270.229C232.372 264.734 231.194 241.16 231.194 241.239Z" fill="#8E887E" fill-opacity="0.24"/>
<path fill-rule="evenodd" clip-rule="evenodd" d="M186.205 135.712C184.796 135.712 185.084 141.153 185.084 142.098V152.263C185.084 158.383 185.71 165.776 184.12 171.698C183.714 173.204 181.054 177.654 181.55 178.573C182.793 180.888 191.072 182.516 193.759 181.266C196.94 179.785 196.277 175.418 196.65 172.295C197.61 164.26 196.971 155.887 196.971 147.778C196.971 145.643 199.045 140.678 197.95 138.646C196.186 135.36 190.567 135.712 186.205 135.712Z" fill="#8E887E" fill-opacity="0.24"/>
<path fill-rule="evenodd" clip-rule="evenodd" d="M186.205 79.8492C184.796 79.8492 185.084 85.291 185.084 86.2359V96.4005C185.084 102.52 185.71 109.914 184.12 115.835C183.714 117.341 181.054 121.791 181.55 122.711C182.793 125.026 191.072 126.654 193.759 125.404C196.94 123.923 196.277 119.556 196.65 116.433C197.61 108.398 196.971 100.025 196.971 91.916C196.971 89.781 199.045 84.816 197.95 82.7832C196.186 79.4987 190.567 79.8492 186.205 79.8492Z" fill="#8E887E" fill-opacity="0.24"/>
<path fill-rule="evenodd" clip-rule="evenodd" d="M186.205 235.921C184.796 235.921 185.084 241.362 185.084 242.307V252.472C185.084 258.592 185.71 265.985 184.12 271.907C183.714 273.413 181.054 277.863 181.55 278.782C182.793 281.097 191.072 282.725 193.759 281.475C196.94 279.994 196.277 275.627 196.65 272.504C197.61 264.469 196.971 256.096 196.971 247.987C196.971 245.852 199.045 240.887 197.95 238.855C196.186 235.569 190.567 235.921 186.205 235.921Z" fill="#8E887E" fill-opacity="0.24"/>
<path fill-rule="evenodd" clip-rule="evenodd" d="M46.2957 140.717C43.9389 140.408 44.0964 152.32 43.6259 155.611C42.8796 160.81 41.6982 166.206 41.6982 171.458C41.6982 172.554 40.9146 175.877 42.3407 176.54C43.3378 177.004 44.9919 176.242 45.8749 176.242C56.2309 176.242 52.622 160.914 52.622 153.519V147.238C52.622 146.544 53.2397 141.834 52.622 141.259C51.9712 140.653 46.1236 140.717 46.2957 140.717Z" fill="#8E887E" fill-opacity="0.24"/>
<path fill-rule="evenodd" clip-rule="evenodd" d="M46.2957 84.854C43.9389 84.5454 44.0964 96.4576 43.6259 99.7483C42.8796 104.947 41.6982 110.343 41.6982 115.596C41.6982 116.691 40.9146 120.014 42.3407 120.678C43.3378 121.141 44.9919 120.379 45.8749 120.379C56.2309 120.379 52.622 105.051 52.622 97.6557V91.3756C52.622 90.6808 53.2397 85.9708 52.622 85.3961C51.9712 84.7906 46.1236 84.854 46.2957 84.854Z" fill="#8E887E" fill-opacity="0.24"/>
<path fill-rule="evenodd" clip-rule="evenodd" d="M46.2957 240.926C43.9389 240.617 44.0964 252.529 43.6259 255.82C42.8796 261.018 41.6982 266.415 41.6982 271.667C41.6982 272.763 40.9146 276.086 42.3407 276.749C43.3378 277.213 44.9919 276.451 45.8749 276.451C56.2309 276.451 52.622 261.122 52.622 253.728V247.447C52.622 246.753 53.2397 242.043 52.622 241.468C51.9712 240.862 46.1236 240.926 46.2957 240.926Z" fill="#8E887E" fill-opacity="0.24"/>
<path fill-rule="evenodd" clip-rule="evenodd" d="M255.797 240.246C253.44 239.938 253.597 251.85 253.127 255.14C252.381 260.338 251.199 265.735 251.199 270.987C251.199 272.083 250.416 275.406 251.842 276.07C252.839 276.532 254.493 275.771 255.376 275.771C265.732 275.771 262.123 260.442 262.123 253.047V246.767C262.123 246.073 262.741 241.362 262.123 240.788C261.472 240.182 255.624 240.246 255.797 240.246Z" fill="#8E887E" fill-opacity="0.24"/>
<path fill-rule="evenodd" clip-rule="evenodd" d="M23.5672 35.541C21.2104 35.2324 21.3679 47.1447 20.8974 50.4352C20.1511 55.6334 18.9697 61.0302 18.9697 66.2822C18.9697 67.378 18.1861 70.7013 19.6122 71.3648C20.6092 71.8274 22.2634 71.066 23.1464 71.066C33.5023 71.066 29.8935 55.7375 29.8935 48.3425V42.0623C29.8935 41.3679 30.5112 36.6578 29.8935 36.083C29.2426 35.4773 23.3951 35.541 23.5672 35.541Z" fill="#8E887E" fill-opacity="0.24"/>
<path fill-rule="evenodd" clip-rule="evenodd" d="M23.5672 187.465C21.2104 187.156 21.3679 199.069 20.8974 202.359C20.1511 207.558 18.9697 212.954 18.9697 218.206C18.9697 219.302 18.1861 222.626 19.6122 223.289C20.6092 223.752 22.2634 222.99 23.1464 222.99C33.5023 222.99 29.8935 207.662 29.8935 200.267V193.986C29.8935 193.292 30.5112 188.582 29.8935 188.007C29.2426 187.401 23.3951 187.465 23.5672 187.465Z" fill="#8E887E" fill-opacity="0.24"/>
<path fill-rule="evenodd" clip-rule="evenodd" d="M308.03 138.114C305.673 137.805 305.83 149.717 305.36 153.008C304.614 158.206 303.433 163.603 303.433 168.855C303.433 169.951 302.649 173.274 304.075 173.937C305.072 174.401 306.726 173.639 307.609 173.639C317.965 173.639 314.356 158.31 314.356 150.915V144.635C314.356 143.941 314.974 139.231 314.356 138.656C313.706 138.05 307.858 138.114 308.03 138.114Z" fill="#8E887E" fill-opacity="0.24"/>
<path fill-rule="evenodd" clip-rule="evenodd" d="M308.03 82.2515C305.673 81.9429 305.83 93.8551 305.36 97.1458C304.614 102.344 303.433 107.74 303.433 112.993C303.433 114.088 302.649 117.412 304.075 118.075C305.072 118.538 306.726 117.776 307.609 117.776C317.965 117.776 314.356 102.448 314.356 95.0532V88.7725C314.356 88.0782 314.974 83.3683 314.356 82.7936C313.706 82.188 307.858 82.2515 308.03 82.2515Z" fill="#8E887E" fill-opacity="0.24"/>
<path fill-rule="evenodd" clip-rule="evenodd" d="M308.03 238.323C305.673 238.014 305.83 249.926 305.36 253.217C304.614 258.415 303.433 263.812 303.433 269.064C303.433 270.16 302.649 273.483 304.075 274.146C305.072 274.609 306.726 273.848 307.609 273.848C317.965 273.848 314.356 258.519 314.356 251.124V244.844C314.356 244.15 314.974 239.44 314.356 238.864C313.706 238.259 307.858 238.323 308.03 238.323Z" fill="#8E887E" fill-opacity="0.24"/>
<path fill-rule="evenodd" clip-rule="evenodd" d="M186.274 35.8579C183.917 35.5494 184.075 47.4616 183.605 50.7522C182.858 55.9503 181.677 61.3471 181.677 66.5992C181.677 67.6951 180.893 71.0184 182.319 71.6818C183.316 72.1445 184.97 71.3825 185.853 71.3825C196.209 71.3825 192.601 56.0545 192.601 48.6594V42.3792C192.601 41.6849 193.218 36.9747 192.601 36.4C191.95 35.7943 186.102 35.8579 186.274 35.8579Z" fill="#8E887E" fill-opacity="0.24"/>
<path fill-rule="evenodd" clip-rule="evenodd" d="M186.274 187.782C183.917 187.474 184.075 199.386 183.605 202.677C182.858 207.875 181.677 213.272 181.677 218.524C181.677 219.62 180.893 222.943 182.319 223.606C183.316 224.069 184.97 223.307 185.853 223.307C196.209 223.307 192.601 207.979 192.601 200.584V194.304C192.601 193.61 193.218 188.899 192.601 188.324C191.95 187.719 186.102 187.782 186.274 187.782Z" fill="#8E887E" fill-opacity="0.24"/>
<path fill-rule="evenodd" clip-rule="evenodd" d="M116.285 187.782C113.928 187.474 114.086 199.386 113.615 202.677C112.869 207.875 111.687 213.272 111.687 218.524C111.687 219.62 110.904 222.943 112.33 223.606C113.327 224.069 114.981 223.307 115.864 223.307C126.22 223.307 122.611 207.979 122.611 200.584V194.304C122.611 193.61 123.229 188.899 122.611 188.324C121.96 187.719 116.113 187.782 116.285 187.782Z" fill="#8E887E" fill-opacity="0.24"/>
<path fill-rule="evenodd" clip-rule="evenodd" d="M66.1365 35.541C63.7797 35.2324 63.9373 47.1447 63.4667 50.4352C62.7205 55.6334 61.539 61.0302 61.539 66.2822C61.539 67.378 60.7554 70.7013 62.1816 71.3648C63.1786 71.8274 64.8327 71.066 65.7157 71.066C76.0714 71.066 72.4628 55.7375 72.4628 48.3425V42.0623C72.4628 41.3679 73.0805 36.6578 72.4628 36.083C71.8121 35.4773 65.9645 35.541 66.1365 35.541Z" fill="#8E887E" fill-opacity="0.24"/>
<path fill-rule="evenodd" clip-rule="evenodd" d="M66.1365 187.465C63.7797 187.156 63.9373 199.069 63.4667 202.359C62.7205 207.558 61.539 212.954 61.539 218.206C61.539 219.302 60.7554 222.626 62.1816 223.289C63.1786 223.752 64.8327 222.99 65.7157 222.99C76.0714 222.99 72.4628 207.662 72.4628 200.267V193.986C72.4628 193.292 73.0805 188.582 72.4628 188.007C71.8121 187.401 65.9645 187.465 66.1365 187.465Z" fill="#8E887E" fill-opacity="0.24"/>
<path fill-rule="evenodd" clip-rule="evenodd" d="M251.591 80.1874C249.421 80.3494 250.072 92.9331 249.752 95.155C249.435 97.3713 249.377 99.5008 249.11 101.733C248.564 106.308 248.637 110.921 248.146 115.487C247.963 117.182 246.883 121.506 247.825 123.26C248.477 124.475 251.485 123.941 252.646 124.157C253.916 124.394 256.108 125.177 257.465 124.754C261.495 123.505 259.364 118.777 259.714 115.188C260.526 106.863 260.357 98.1333 260.357 89.7736C260.357 88.4122 261.555 80.4227 260.357 79.3084C259.658 78.6579 255.32 79.4334 254.574 79.6071C253.946 79.7537 250.917 79.5628 251.591 80.1874Z" fill="#8E887E" fill-opacity="0.24"/>
<path fill-rule="evenodd" clip-rule="evenodd" d="M164.617 33.0514C162.447 33.2134 163.098 45.797 162.779 48.0189C162.462 50.2351 162.403 52.3645 162.136 54.5962C161.591 59.1713 161.663 63.785 161.172 68.3508C160.989 70.046 159.91 74.3703 160.851 76.1235C161.504 77.3388 164.511 76.8041 165.672 77.0203C166.943 77.2575 169.134 78.0411 170.492 77.6185C174.521 76.3686 172.39 71.6408 172.741 68.0514C173.553 59.7268 173.383 50.997 173.383 42.6376C173.383 41.2758 174.581 33.2867 173.383 32.1719C172.684 31.5218 168.346 32.2973 167.6 32.4709C166.972 32.6175 163.943 32.4265 164.617 33.0514Z" fill="#8E887E" fill-opacity="0.24"/>
<path fill-rule="evenodd" clip-rule="evenodd" d="M164.617 184.975C162.447 185.137 163.098 197.721 162.779 199.943C162.462 202.159 162.403 204.288 162.136 206.52C161.591 211.095 161.663 215.709 161.172 220.274C160.989 221.97 159.91 226.294 160.851 228.047C161.504 229.263 164.511 228.728 165.672 228.944C166.943 229.181 169.134 229.964 170.492 229.542C174.521 228.292 172.39 223.565 172.741 219.975C173.553 211.651 173.383 202.921 173.383 194.562C173.383 193.2 174.581 185.211 173.383 184.096C172.684 183.446 168.346 184.221 167.6 184.394C166.972 184.541 163.943 184.35 164.617 184.975Z" fill="#8E887E" fill-opacity="0.24"/>
<path fill-rule="evenodd" clip-rule="evenodd" d="M19.0162 140.998C18.4855 140.101 19.8785 145.54 19.8785 146.553C19.8785 149.828 19.0618 153.149 18.5933 156.421C17.2377 165.881 10.8699 176.453 24.0553 176.453C25.84 176.453 28.147 176.678 29.8384 176.154C32.3922 175.361 32.3051 171.76 32.7301 169.575C33.9966 163.1 33.0514 155.813 33.0514 149.244C33.0514 147.799 33.9033 142.261 32.7301 141.172C31.7268 140.236 19.0162 142.413 19.0162 140.998Z" fill="#8E887E" fill-opacity="0.24"/>
<path fill-rule="evenodd" clip-rule="evenodd" d="M19.0162 85.1356C18.4855 84.2387 19.8785 89.6779 19.8785 90.6906C19.8785 93.9653 19.0618 97.2868 18.5933 100.558C17.2377 110.019 10.8699 120.591 24.0553 120.591C25.84 120.591 28.147 120.817 29.8384 120.292C32.3922 119.499 32.3051 115.898 32.7301 113.712C33.9966 107.238 33.0514 99.951 33.0514 93.3813C33.0514 91.9362 33.9033 86.399 32.7301 85.3093C31.7268 84.3736 19.0162 86.5511 19.0162 85.1356Z" fill="#8E887E" fill-opacity="0.24"/>
<path fill-rule="evenodd" clip-rule="evenodd" d="M19.0162 241.207C18.4855 240.31 19.8785 245.75 19.8785 246.762C19.8785 250.037 19.0618 253.359 18.5933 256.63C17.2377 266.091 10.8699 276.662 24.0553 276.662C25.84 276.662 28.147 276.888 29.8384 276.364C32.3922 275.571 32.3051 271.97 32.7301 269.784C33.9966 263.309 33.0514 256.022 33.0514 249.453C33.0514 248.008 33.9033 242.471 32.7301 241.381C31.7268 240.445 19.0162 242.623 19.0162 241.207Z" fill="#8E887E" fill-opacity="0.24"/>
<path fill-rule="evenodd" clip-rule="evenodd" d="M232.694 139.791C232.163 138.894 233.556 144.334 233.556 145.346C233.556 148.622 232.74 151.943 232.271 155.214C230.915 164.675 224.548 175.246 237.733 175.246C239.518 175.246 241.825 175.473 243.517 174.948C246.07 174.155 245.983 170.554 246.408 168.369C247.675 161.893 246.729 154.607 246.729 148.037C246.729 146.593 247.581 141.055 246.408 139.965C245.405 139.029 232.694 141.207 232.694 139.791Z" fill="#8E887E" fill-opacity="0.24"/>
<path fill-rule="evenodd" clip-rule="evenodd" d="M162.386 84.4559C161.855 83.559 163.248 88.9983 163.248 90.0103C163.248 93.2856 162.431 96.6071 161.963 99.8787C160.607 109.339 154.239 119.911 167.424 119.911C169.209 119.911 171.516 120.136 173.207 119.612C175.761 118.819 175.675 115.218 176.099 113.033C177.366 106.558 176.421 99.2707 176.421 92.701C176.421 91.2565 177.273 85.7193 176.099 84.6296C175.096 83.6939 162.386 85.8714 162.386 84.4559Z" fill="#8E887E" fill-opacity="0.24"/>
<path fill-rule="evenodd" clip-rule="evenodd" d="M162.386 240.527C161.855 239.63 163.248 245.07 163.248 246.082C163.248 249.358 162.431 252.679 161.963 255.95C160.607 265.411 154.239 275.983 167.424 275.983C169.209 275.983 171.516 276.208 173.207 275.684C175.761 274.891 175.675 271.29 176.099 269.105C177.366 262.63 176.421 255.343 176.421 248.773C176.421 247.328 177.273 241.791 176.099 240.701C175.096 239.766 162.386 241.943 162.386 240.527Z" fill="#8E887E" fill-opacity="0.24"/>
<path fill-rule="evenodd" clip-rule="evenodd" d="M112.583 37.7239C112.052 36.827 113.445 42.2663 113.445 43.2789C113.445 46.554 112.628 49.8754 112.16 53.1467C110.804 62.6073 104.436 73.1791 117.622 73.1791C119.406 73.1791 121.713 73.4052 123.405 72.8804C125.959 72.0876 125.872 68.4864 126.297 66.3009C127.563 59.8261 126.618 52.5391 126.618 45.9696C126.618 44.5249 127.47 38.9874 126.297 37.8975C125.293 36.9621 112.583 39.1397 112.583 37.7239Z" fill="#8E887E" fill-opacity="0.24"/>
<path fill-rule="evenodd" clip-rule="evenodd" d="M65.4708 136.922C63.3005 137.085 63.9513 149.668 63.6321 151.89C63.3149 154.106 63.2569 156.235 62.9895 158.467C62.4444 163.042 62.5169 167.656 62.0256 172.222C61.8433 173.917 60.7633 178.241 61.7044 179.994C62.3573 181.21 65.365 180.676 66.526 180.891C67.7964 181.129 69.9876 181.912 71.3454 181.489C75.375 180.24 73.244 175.512 73.5942 171.922C74.4065 163.598 74.237 154.868 74.237 146.509C74.237 145.147 75.4346 137.158 74.237 136.043C73.5379 135.393 69.1999 136.169 68.4538 136.342C67.8256 136.488 64.797 136.297 65.4708 136.922Z" fill="#8E887E" fill-opacity="0.24"/>
<path fill-rule="evenodd" clip-rule="evenodd" d="M65.4708 81.0602C63.3005 81.2222 63.9513 93.8058 63.6321 96.0278C63.3149 98.2441 63.2569 100.373 62.9895 102.605C62.4444 107.18 62.5169 111.794 62.0256 116.359C61.8433 118.055 60.7633 122.379 61.7044 124.132C62.3573 125.348 65.365 124.813 66.526 125.029C67.7964 125.266 69.9876 126.05 71.3454 125.627C75.375 124.377 73.244 119.65 73.5942 116.06C74.4065 107.735 74.237 99.0055 74.237 90.6464C74.237 89.2844 75.4346 81.2955 74.237 80.1805C73.5379 79.5307 69.1999 80.3062 68.4538 80.4799C67.8256 80.6265 64.797 80.4356 65.4708 81.0602Z" fill="#8E887E" fill-opacity="0.24"/>
<path fill-rule="evenodd" clip-rule="evenodd" d="M65.4708 237.131C63.3005 237.293 63.9513 249.877 63.6321 252.099C63.3149 254.315 63.2569 256.444 62.9895 258.676C62.4444 263.251 62.5169 267.865 62.0256 272.43C61.8433 274.126 60.7633 278.45 61.7044 280.203C62.3573 281.419 65.365 280.884 66.526 281.1C67.7964 281.337 69.9876 282.12 71.3454 281.698C75.375 280.449 73.244 275.721 73.5942 272.131C74.4065 263.807 74.237 255.077 74.237 246.718C74.237 245.356 75.4346 237.367 74.237 236.252C73.5379 235.602 69.1999 236.377 68.4538 236.551C67.8256 236.697 64.797 236.506 65.4708 237.131Z" fill="#8E887E" fill-opacity="0.24"/>
<path fill-rule="evenodd" clip-rule="evenodd" d="M87.6346 139.193C87.3645 138.091 87.434 141.688 87.3923 142.098C87.1182 144.785 87.379 147.502 87.6683 150.259C88.4746 157.965 89.7172 165.959 91.1041 173.586C91.4841 175.677 90.9452 180.276 94.0024 179.92C96.2353 179.66 105.06 178.082 106.015 175.571C106.498 174.297 105.117 170.769 104.843 169.131C103.865 163.289 102.377 157.768 100.712 152.081C99.6002 148.284 98.3775 144.473 97.3355 140.657C97.2197 140.236 97.1786 137.915 96.5292 137.701C94.6935 137.098 89.4299 138.395 87.6346 139.193Z" fill="#8E887E" fill-opacity="0.24"/>
<path fill-rule="evenodd" clip-rule="evenodd" d="M238.223 33.1588C238.49 32.0555 236.885 35.3287 236.658 35.6817C235.166 37.9963 234.141 40.5519 233.123 43.1558C230.279 50.4313 227.695 58.1426 225.41 65.5801C224.785 67.6191 222.167 71.5516 225.089 72.4584C227.224 73.12 235.918 75.2378 237.943 73.3553C238.969 72.4005 239.359 68.6626 239.87 67.0752C241.697 61.4119 242.914 55.8339 244.048 50.0339C244.804 46.1628 245.468 42.2338 246.296 38.3723C246.388 37.9461 247.426 35.836 246.939 35.3827C245.563 34.102 240.213 33.1588 238.223 33.1588Z" fill="#8E887E" fill-opacity="0.24"/>
<path fill-rule="evenodd" clip-rule="evenodd" d="M239.714 225.587C239.839 226.712 240.237 223.134 240.332 222.732C240.952 220.094 241.046 217.369 241.117 214.599C241.316 206.859 241.12 198.783 240.733 191.056C240.626 188.938 241.758 184.434 238.677 184.443C236.427 184.45 227.461 185.026 226.188 187.411C225.544 188.621 226.457 192.279 226.516 193.935C226.729 199.845 227.489 205.492 228.405 211.326C229.016 215.219 229.735 219.139 230.274 223.045C230.335 223.476 230.074 225.784 230.691 226.069C232.435 226.874 237.829 226.178 239.714 225.587Z" fill="#8E887E" fill-opacity="0.24"/>
<path fill-rule="evenodd" clip-rule="evenodd" d="M292.137 135.941C292.141 134.81 292.921 138.333 293.059 138.724C293.959 141.291 294.346 143.994 294.715 146.743C295.745 154.426 296.419 162.479 296.864 170.203C296.987 172.32 298.597 176.697 295.531 176.975C293.291 177.178 284.309 177.439 282.785 175.185C282.013 174.041 282.529 170.316 282.41 168.663C281.986 162.763 282.135 157.073 282.419 151.184C282.608 147.253 282.902 143.286 283.018 139.349C283.031 138.915 282.524 136.642 283.108 136.302C284.756 135.338 290.197 135.528 292.137 135.941Z" fill="#8E887E" fill-opacity="0.24"/>
<path fill-rule="evenodd" clip-rule="evenodd" d="M284.178 81.0459C284.182 79.9149 284.962 83.4384 285.1 83.8302C286.001 86.3958 286.387 89.0995 286.755 91.8487C287.786 99.5308 288.459 107.584 288.906 115.308C289.027 117.426 290.638 121.803 287.572 122.08C285.332 122.283 276.349 122.545 274.826 120.29C274.054 119.146 274.57 115.422 274.451 113.768C274.027 107.868 274.176 102.178 274.459 96.2894C274.649 92.3587 274.943 88.3911 275.059 84.4548C275.072 84.0199 274.565 81.7475 275.149 81.4069C276.797 80.444 282.239 80.6331 284.178 81.0459Z" fill="#8E887E" fill-opacity="0.24"/>
<path fill-rule="evenodd" clip-rule="evenodd" d="M286.304 235.533C286.308 234.402 287.088 237.925 287.226 238.317C288.127 240.883 288.513 243.587 288.881 246.336C289.912 254.018 290.585 262.071 291.032 269.795C291.153 271.913 292.764 276.29 289.698 276.568C287.458 276.77 278.476 277.032 276.952 274.777C276.181 273.634 276.696 269.909 276.577 268.255C276.152 262.356 276.302 256.665 276.585 250.776C276.775 246.846 277.069 242.878 277.185 238.942C277.198 238.508 276.691 236.235 277.275 235.894C278.923 234.931 284.365 235.121 286.304 235.533Z" fill="#8E887E" fill-opacity="0.24"/>
<path fill-rule="evenodd" clip-rule="evenodd" d="M149.406 34.9868C149.409 33.8559 150.19 37.3795 150.327 37.7708C151.228 40.3366 151.614 43.0403 151.983 45.7898C153.014 53.472 153.687 61.5254 154.133 69.2495C154.255 71.3667 155.866 75.7434 152.799 76.0212C150.56 76.2239 141.578 76.4857 140.054 74.2305C139.283 73.0872 139.798 69.3622 139.678 67.7089C139.254 61.8095 139.404 56.1194 139.687 50.2302C139.876 46.2995 140.17 42.3318 140.287 38.3955C140.3 37.961 139.793 35.6887 140.376 35.3478C142.025 34.3846 147.466 34.5743 149.406 34.9868Z" fill="#8E887E" fill-opacity="0.24"/>
<path fill-rule="evenodd" clip-rule="evenodd" d="M149.406 186.911C149.409 185.78 150.19 189.303 150.327 189.695C151.228 192.26 151.614 194.964 151.983 197.714C153.014 205.396 153.687 213.449 154.133 221.173C154.255 223.291 155.866 227.667 152.799 227.945C150.56 228.148 141.578 228.41 140.054 226.154C139.283 225.011 139.798 221.286 139.678 219.633C139.254 213.733 139.404 208.043 139.687 202.154C139.876 198.224 140.17 194.255 140.287 190.319C140.3 189.885 139.793 187.612 140.376 187.272C142.025 186.308 147.466 186.498 149.406 186.911Z" fill="#8E887E" fill-opacity="0.24"/>
<path fill-rule="evenodd" clip-rule="evenodd" d="M125.52 140.9C124.811 140.636 122.342 142.133 122.307 142.395C122.007 144.634 121.208 146.77 120.7 148.972C119.194 155.521 116.422 161.803 115.238 168.407C114.954 169.993 113.728 173.071 114.596 174.687C115.075 175.577 128.538 177.26 129.698 176.182C134.379 171.825 132.269 156.254 132.269 150.467C132.269 148.832 133.092 144.825 132.269 143.292C131.253 141.404 128.069 141.85 125.52 140.9Z" fill="#8E887E" fill-opacity="0.24"/>
<path fill-rule="evenodd" clip-rule="evenodd" d="M114.808 87.1142C114.048 87.0433 112.123 89.1192 112.168 89.3804C112.547 91.6091 112.417 93.8667 112.587 96.1139C113.093 102.794 112.304 109.545 113.137 116.196C113.337 117.792 113.077 121.066 114.393 122.395C115.118 123.126 128.555 121.266 129.348 119.93C132.545 114.535 125.872 100.121 124.147 94.5616C123.659 92.9902 123.254 88.9289 122.006 87.6685C120.467 86.1168 117.541 87.3673 114.808 87.1142Z" fill="#8E887E" fill-opacity="0.24"/>
<path fill-rule="evenodd" clip-rule="evenodd" d="M92.3938 35.5663C91.6848 35.302 89.2162 36.7988 89.1811 37.0611C88.8806 39.3004 88.0822 41.4356 87.5744 43.6383C86.0677 50.1866 83.2959 56.4687 82.1123 63.0728C81.8283 64.6584 80.6016 67.7365 81.4701 69.3529C81.9488 70.2424 95.4119 71.926 96.573 70.848C101.253 66.491 99.1429 50.9196 99.1429 45.1332C99.1429 43.4975 99.9658 39.4914 99.1429 37.958C98.1274 36.0697 94.9432 36.5153 92.3938 35.5663Z" fill="#8E887E" fill-opacity="0.24"/>
<path d="M6.75353 0C6.76657 1.55012 6.96748 3.56782 7.1876 5.7781C7.82623 12.1913 8.62632 20.2257 5.46769 23.1634C4.89948 23.6935 2.60578 23.3117 1.04439 23.0517C0.629008 22.9825 0.265451 22.922 0 22.8896V0H6.75353Z" fill="#8E887E" fill-opacity="0.24"/>
<path d="M33.0948 0H19.3408C19.2537 0.528305 19.1619 1.05645 19.0701 1.58404C18.9008 2.55763 18.7319 3.52932 18.5933 4.49663C18.2965 6.56779 17.7596 8.69213 17.2401 10.7472C15.3867 18.0795 13.7564 24.5292 24.0553 24.5292C24.4549 24.5292 24.8808 24.5405 25.3201 24.5522C26.8424 24.5926 28.5258 24.6374 29.8384 24.2302C31.9104 23.5871 32.244 21.0953 32.523 19.0108C32.5879 18.5261 32.6499 18.0634 32.7301 17.6511C33.6218 13.0923 33.4171 8.13114 33.2179 3.30116C33.1721 2.19169 33.1267 1.08915 33.0948 0Z" fill="#8E887E" fill-opacity="0.24"/>
<path d="M52.6221 0H43.9061C43.8195 1.54413 43.7417 2.8767 43.6259 3.68677C43.4333 5.02837 43.2117 6.38318 42.989 7.74534C42.3485 11.661 41.6982 15.6372 41.6982 19.5339C41.6982 19.7748 41.6603 20.1234 41.6164 20.5278C41.4604 21.9624 41.2282 24.0986 42.3407 24.6162C42.9867 24.9162 43.9085 24.702 44.7176 24.5139C45.1575 24.4117 45.564 24.3173 45.8749 24.3173C54.2637 24.3173 53.4891 14.2593 52.8922 6.50749C52.7523 4.6897 52.6221 2.99873 52.6221 1.594V0Z" fill="#8E887E" fill-opacity="0.24"/>
<path d="M74.2489 0H63.6272C63.4539 1.2209 63.3585 2.41573 63.2628 3.61614C63.1856 4.58272 63.1082 5.55292 62.9895 6.54328C62.7046 8.93391 62.5884 11.3351 62.4723 13.7344C62.3662 15.9268 62.2602 18.1177 62.0256 20.2976C61.9849 20.6759 61.8996 21.1851 61.8018 21.7675C61.4619 23.7948 60.9733 26.7086 61.7043 28.0706C62.162 28.9224 63.7769 28.9146 65.1015 28.9082C65.6665 28.9054 66.1787 28.903 66.526 28.9675C66.8325 29.0249 67.1933 29.114 67.5832 29.2104C68.8059 29.5127 70.3153 29.8859 71.3454 29.5655C74.2092 28.6771 73.9609 26.032 73.7041 23.2874C73.5988 22.1704 73.4929 21.0369 73.5942 19.9986C74.2324 13.4571 74.2641 6.66549 74.2489 0Z" fill="#8E887E" fill-opacity="0.24"/>
<path d="M103.8 0H90.8811C88.5733 6.1916 86.451 12.6074 84.5391 18.8314C84.4034 19.2739 84.1737 19.8057 83.9274 20.3765C83.0377 22.4349 81.9302 24.9997 84.218 25.7094C86.353 26.371 95.0464 28.4889 97.0721 26.6064C97.7705 25.9563 98.1737 24.0161 98.5219 22.3428C98.6854 21.5585 98.8363 20.8328 98.9998 20.3262C100.826 14.6632 102.042 9.08514 103.176 3.2852C103.39 2.1938 103.595 1.09779 103.8 0Z" fill="#8E887E" fill-opacity="0.24"/>
<path d="M132.301 0H119.94C119.407 1.89777 118.801 3.78033 118.196 5.66246C117.046 9.2371 115.897 12.8102 115.238 16.4829C115.169 16.8686 115.044 17.3426 114.907 17.8625C114.482 19.4796 113.939 21.54 114.596 22.7632C115.075 23.6523 128.538 25.3361 129.698 24.258C133.429 20.7848 132.845 10.1863 132.455 3.098C132.393 1.96023 132.335 0.912906 132.301 0Z" fill="#8E887E" fill-opacity="0.24"/>
<path d="M153.339 0H142.477C142.456 0.220268 142.435 0.439796 142.413 0.658449C142.314 1.68097 142.209 2.70662 142.103 3.73444C141.618 8.47456 141.128 13.2609 141.128 18.0003C141.128 18.1378 141.096 18.4804 141.052 18.9366C140.9 20.5285 140.617 23.5044 141.128 23.9796C141.754 24.562 145.295 24.2607 147.404 24.0814C148.075 24.0244 148.601 23.9796 148.841 23.9796C149.063 23.9796 149.665 24.098 150.347 24.2324C151.441 24.4481 152.744 24.7047 153.018 24.5775C153.927 24.1548 153.583 19.6181 153.413 17.3609C153.371 16.8061 153.339 16.3892 153.339 16.2046V0Z" fill="#8E887E" fill-opacity="0.24"/>
<path d="M172.958 0C173.003 1.4899 173.078 2.99412 173.154 4.50393C173.425 9.89247 173.699 15.3523 172.595 20.4875C172.52 20.8389 172.465 21.3376 172.403 21.8963C172.223 23.5402 171.985 25.7043 170.989 26.1679C169.455 26.8815 162.762 26.4051 161.992 24.972C161.33 23.74 161.989 21.5266 162.509 19.778C162.702 19.1284 162.876 18.543 162.956 18.0958C163.486 15.1356 163.388 6.92908 163.185 0H172.958Z" fill="#8E887E" fill-opacity="0.24"/>
<path d="M197.016 0H185.084V0.338779C185.084 1.65591 185.113 3.032 185.143 4.43969C185.251 9.57289 185.368 15.1264 184.12 19.7734C183.971 20.3249 183.52 21.2709 183.033 22.2938C182.19 24.0648 181.236 26.0664 181.549 26.6496C182.793 28.9642 191.072 30.5921 193.759 29.3422C196.255 28.1802 196.385 25.2423 196.505 22.5224C196.538 21.7751 196.57 21.0443 196.65 20.3714C197.337 14.6222 197.206 8.70032 197.075 2.82605C197.054 1.8825 197.034 0.940182 197.016 0Z" fill="#8E887E" fill-opacity="0.24"/>
<path d="M221.061 0H208.308C207.864 1.50027 207.384 2.99292 206.904 4.48528C205.754 8.05993 204.605 11.633 203.946 15.3058C203.877 15.6914 203.752 16.1654 203.615 16.6853C203.19 18.3024 202.647 20.3628 203.304 21.586C203.783 22.4751 217.246 24.159 218.406 23.0808C222.137 19.6076 221.554 9.00912 221.163 1.92082C221.126 1.24563 221.091 0.602296 221.061 0Z" fill="#8E887E" fill-opacity="0.24"/>
<path d="M246.812 0H232.813C232.792 0.125873 232.769 0.251719 232.748 0.377534C232.579 1.35112 232.409 2.32281 232.271 3.29012C231.974 5.36126 231.438 7.48563 230.918 9.54073C229.064 16.873 227.434 23.3227 237.733 23.3227C238.132 23.3227 238.559 23.334 238.998 23.3457C240.52 23.3861 242.204 23.4309 243.516 23.0237C245.588 22.3805 245.921 19.8887 246.201 17.8043C246.266 17.3196 246.328 16.8569 246.408 16.4446C247.3 11.8858 247.095 6.92464 246.896 2.09465C246.867 1.39312 246.838 0.694361 246.812 0Z" fill="#8E887E" fill-opacity="0.24"/>
<path d="M270.203 0H259.333C259.291 0.477859 259.252 0.954609 259.214 1.43224C259.137 2.39883 259.059 3.36903 258.941 4.35936C258.656 6.75 258.54 9.15117 258.424 11.5505C258.317 13.7429 258.211 15.9338 257.977 18.1137C257.936 18.492 257.851 19.0012 257.753 19.5836C257.413 21.611 256.925 24.5247 257.655 25.8867C258.113 26.7385 259.728 26.7307 261.053 26.7243C261.618 26.7215 262.13 26.7191 262.477 26.7836C262.784 26.841 263.145 26.9301 263.535 27.0264C264.757 27.3288 266.267 27.702 267.297 27.3816C270.161 26.4932 269.912 23.8481 269.655 21.1035C269.55 19.9865 269.444 18.853 269.546 17.8147C270.114 11.9863 270.202 5.95937 270.203 0Z" fill="#8E887E" fill-opacity="0.24"/>
<path d="M295.351 0C296.033 6.07273 296.518 12.2755 296.864 18.2792C296.891 18.7388 296.987 19.3049 297.091 19.9124C297.465 22.1036 297.931 24.8336 295.531 25.0511C293.291 25.2534 284.309 25.5156 282.785 23.2606C282.26 22.482 282.331 20.5068 282.392 18.8035C282.421 18.005 282.448 17.2664 282.41 16.7386C282.003 11.0868 282.123 5.62688 282.383 0H295.351Z" fill="#8E887E" fill-opacity="0.24"/>
<path d="M314.375 0H305.474C305.44 0.42116 305.403 0.787581 305.36 1.08403C305.168 2.42563 304.946 3.78046 304.723 5.14263C304.083 9.05828 303.433 13.0345 303.433 16.9311C303.433 17.172 303.394 17.5207 303.351 17.9251C303.195 19.3597 302.963 21.4959 304.075 22.0135C304.721 22.3134 305.642 22.0992 306.452 21.9112C306.892 21.809 307.298 21.7145 307.609 21.7145C315.998 21.7145 315.223 11.6566 314.626 3.90476C314.518 2.50347 314.417 1.17753 314.375 0Z" fill="#8E887E" fill-opacity="0.24"/>
<path d="M331 22.8898C330.868 22.8737 330.761 22.8644 330.682 22.8644C330.318 22.8644 329.892 22.8809 329.434 22.8985C327.66 22.9669 325.422 23.0532 324.578 22.2665C324.156 21.8753 324.497 20.2068 324.73 19.0738C324.823 18.615 324.899 18.2439 324.899 18.081C324.899 17.4751 324.899 16.8693 324.898 16.2637C324.892 11.5771 324.887 6.89871 325.22 2.23394C325.263 1.6361 325.33 0.862449 325.41 0H331V22.8898Z" fill="#8E887E" fill-opacity="0.24"/>
<path d="M331 36.3516V71.1599C326.94 70.8001 322.354 70.024 322.078 69.5121C321.42 68.2887 321.963 66.2282 322.389 64.6112C322.526 64.0913 322.652 63.6176 322.72 63.232C323.378 59.559 324.528 55.9859 325.678 52.4112C326.595 49.558 327.513 46.7037 328.183 43.7971C328.37 42.9824 328.598 42.177 328.825 41.3721C329.213 40.0007 329.599 38.6309 329.789 37.2199C329.805 37.0975 330.351 36.7069 331 36.3516Z" fill="#8E887E" fill-opacity="0.24"/>
<path d="M331 86.3193V118.951C330.868 118.935 330.761 118.926 330.682 118.926C330.318 118.926 329.892 118.942 329.434 118.96C327.66 119.028 325.422 119.115 324.578 118.328C324.156 117.937 324.497 116.268 324.73 115.135C324.823 114.676 324.899 114.305 324.899 114.142C324.899 113.537 324.899 112.931 324.898 112.325C324.892 107.638 324.887 102.96 325.22 98.2956C325.314 96.9817 325.525 94.8183 325.728 92.73C326.015 89.7751 326.288 86.9698 326.197 86.9273C326.379 86.8577 328.585 86.514 331 86.3193Z" fill="#8E887E" fill-opacity="0.24"/>
<path d="M326.187 86.9335C326.19 86.9276 326.194 86.9254 326.197 86.9276C326.192 86.9298 326.188 86.9313 326.187 86.9335Z" fill="#8E887E" fill-opacity="0.24"/>
<path d="M326.185 86.9363L326.186 86.9326C326.185 86.9335 326.185 86.9363 326.185 86.9363Z" fill="#8E887E" fill-opacity="0.24"/>
<path d="M331 142.182V174.814C330.868 174.798 330.761 174.789 330.682 174.789C330.318 174.789 329.892 174.805 329.434 174.823C327.66 174.891 325.422 174.977 324.578 174.191C324.156 173.8 324.497 172.131 324.73 170.998C324.823 170.539 324.899 170.168 324.899 170.005C324.899 169.399 324.899 168.793 324.898 168.188C324.892 163.501 324.887 158.823 325.22 154.158C325.314 152.844 325.525 150.681 325.728 148.593C326.015 145.638 326.288 142.833 326.197 142.79C326.379 142.721 328.585 142.377 331 142.182Z" fill="#8E887E" fill-opacity="0.24"/>
<path d="M326.187 142.796C326.19 142.79 326.194 142.788 326.197 142.79C326.192 142.793 326.188 142.794 326.187 142.796Z" fill="#8E887E" fill-opacity="0.24"/>
<path d="M326.185 142.799L326.186 142.795C326.185 142.796 326.185 142.799 326.185 142.799Z" fill="#8E887E" fill-opacity="0.24"/>
<path d="M331 188.275V223.084C326.94 222.724 322.354 221.948 322.078 221.435C321.42 220.213 321.963 218.152 322.389 216.535C322.526 216.015 322.652 215.541 322.72 215.155C323.378 211.483 324.528 207.91 325.678 204.335C326.595 201.482 327.513 198.627 328.183 195.721C328.37 194.906 328.598 194.101 328.825 193.296C329.213 191.925 329.599 190.555 329.789 189.143C329.805 189.021 330.351 188.631 331 188.275Z" fill="#8E887E" fill-opacity="0.24"/>
<path d="M331 242.391V275.023C330.868 275.006 330.761 274.997 330.682 274.997C330.318 274.997 329.892 275.014 329.434 275.032C327.66 275.1 325.422 275.186 324.578 274.4C324.156 274.009 324.497 272.34 324.73 271.207C324.823 270.748 324.899 270.377 324.899 270.214C324.899 269.608 324.899 269.002 324.898 268.397C324.892 263.71 324.887 259.032 325.22 254.367C325.314 253.053 325.525 250.89 325.728 248.801C326.015 245.847 326.288 243.041 326.197 242.999C326.379 242.929 328.585 242.586 331 242.391Z" fill="#8E887E" fill-opacity="0.24"/>
<path d="M326.187 243.005C326.19 242.999 326.194 242.997 326.197 242.999C326.192 243.002 326.188 243.003 326.187 243.005Z" fill="#8E887E" fill-opacity="0.24"/>
<path d="M326.185 243.008L326.186 243.004C326.185 243.005 326.185 243.008 326.185 243.008Z" fill="#8E887E" fill-opacity="0.24"/>
<path d="M331 298.259V308H325.41C325.505 306.967 325.618 305.807 325.729 304.669C326.016 301.715 326.289 298.909 326.197 298.866C326.38 298.797 328.586 298.453 331 298.259Z" fill="#8E887E" fill-opacity="0.24"/>
<path d="M326.187 298.872C326.19 298.867 326.194 298.865 326.197 298.866C326.192 298.868 326.188 298.871 326.187 298.872Z" fill="#8E887E" fill-opacity="0.24"/>
<path d="M326.185 298.875L326.186 298.871C326.185 298.873 326.185 298.875 326.185 298.875Z" fill="#8E887E" fill-opacity="0.24"/>
<path d="M314.375 308H305.474C305.538 307.216 305.592 306.243 305.652 305.179C305.916 300.465 306.28 293.961 308.03 294.19C307.857 294.19 313.705 294.126 314.356 294.732C314.83 295.174 314.576 298.052 314.432 299.679C314.389 300.172 314.356 300.55 314.356 300.711V306.992C314.356 307.313 314.362 307.65 314.375 308Z" fill="#8E887E" fill-opacity="0.24"/>
<path d="M295.352 308H282.384C282.395 307.754 282.407 307.507 282.419 307.26C282.488 305.813 282.572 304.359 282.657 302.905C282.8 300.411 282.945 297.912 283.019 295.426C283.022 295.317 282.992 295.093 282.956 294.813C282.846 293.975 282.67 292.634 283.108 292.378C284.756 291.415 290.197 291.605 292.138 292.017C292.14 291.191 292.557 292.848 292.835 293.954C292.938 294.362 293.022 294.696 293.059 294.801C293.96 297.367 294.346 300.071 294.715 302.82C294.944 304.531 295.156 306.26 295.352 308Z" fill="#8E887E" fill-opacity="0.24"/>
<path d="M270.203 308H259.334C259.4 307.266 259.477 306.529 259.584 305.782C259.67 305.185 259.686 303.838 259.705 302.186C259.757 297.691 259.836 290.934 261.423 290.815C260.956 290.382 262.267 290.341 263.325 290.307C263.793 290.292 264.212 290.28 264.406 290.235C265.152 290.061 269.49 289.285 270.189 289.936C271.097 290.781 270.628 295.577 270.348 298.44C270.259 299.354 270.189 300.072 270.189 300.401C270.189 301.629 270.192 302.864 270.196 304.105C270.199 305.398 270.203 306.697 270.203 308Z" fill="#8E887E" fill-opacity="0.24"/>
<path d="M246.812 308H232.814C233.194 305.806 233.556 303.604 233.556 301.423C233.556 300.98 233.289 299.688 233.034 298.452C232.705 296.862 232.395 295.364 232.694 295.868C232.694 296.635 236.424 296.347 240.003 296.071C243.03 295.838 245.948 295.613 246.408 296.042C247.304 296.875 247.018 300.304 246.834 302.52C246.777 303.205 246.729 303.773 246.729 304.114C246.729 305.386 246.765 306.685 246.812 308Z" fill="#8E887E" fill-opacity="0.24"/>
<path d="M221.061 308H208.309C208.714 306.632 209.089 305.258 209.408 303.872C209.596 303.057 209.823 302.252 210.051 301.447C210.438 300.075 210.826 298.705 211.015 297.295C211.05 297.032 213.519 295.535 214.228 295.8C215.14 296.14 216.134 296.301 217.081 296.454C218.779 296.729 220.325 296.979 220.977 298.192C221.558 299.275 221.318 301.593 221.127 303.436C221.047 304.203 220.977 304.886 220.977 305.367C220.977 306.101 221.011 306.993 221.061 308Z" fill="#8E887E" fill-opacity="0.24"/>
<path d="M197.016 308H185.084V298.174C185.084 298.073 185.08 297.919 185.076 297.725C185.041 296.121 184.947 291.788 186.205 291.788C186.583 291.788 186.97 291.786 187.364 291.783C191.512 291.755 196.339 291.722 197.95 294.722C198.648 296.02 198.057 298.511 197.537 300.699C197.243 301.939 196.971 303.083 196.971 303.855C196.971 305.23 196.99 306.613 197.016 308Z" fill="#8E887E" fill-opacity="0.24"/>
<path d="M172.958 308H163.185C163.012 302.067 162.762 297.07 162.762 297.106C166.777 292.877 171.783 296.337 172.917 297.392C173.548 297.98 173.225 301.681 173.029 303.915C172.966 304.636 172.917 305.204 172.917 305.466C172.917 306.305 172.932 307.15 172.958 308Z" fill="#8E887E" fill-opacity="0.24"/>
<path d="M153.339 308H142.477C142.544 307.283 142.609 306.558 142.674 305.83C142.878 303.566 143.084 301.272 143.377 299.09C143.462 298.461 145.558 297.395 146.482 297.395C147.588 297.395 148.476 297.244 149.23 297.116C150.55 296.892 151.454 296.739 152.375 297.595C153.157 298.323 153.339 303.27 153.339 304.471V308Z" fill="#8E887E" fill-opacity="0.24"/>
<path d="M132.301 308H119.941C120.217 307.021 120.473 306.038 120.701 305.049C120.889 304.234 121.116 303.428 121.344 302.623C121.731 301.252 122.118 299.883 122.307 298.471C122.342 298.209 124.811 296.712 125.52 296.976C126.433 297.316 127.427 297.477 128.374 297.631C130.071 297.905 131.617 298.156 132.269 299.368C132.85 300.451 132.611 302.769 132.419 304.613C132.34 305.379 132.269 306.063 132.269 306.544C132.269 306.977 132.281 307.465 132.301 308Z" fill="#8E887E" fill-opacity="0.24"/>
<path d="M103.799 308H90.8809C91.3304 306.794 91.7878 305.595 92.2519 304.408C93.2694 301.804 94.2935 299.248 95.7856 296.934C95.8472 296.838 96.0087 296.531 96.2066 296.154C96.7429 295.134 97.5459 293.605 97.3506 294.411C99.3406 294.411 104.691 295.354 106.067 296.634C106.433 296.974 105.94 298.245 105.632 299.04C105.53 299.305 105.448 299.518 105.424 299.625C104.901 302.063 104.443 304.53 103.986 306.991C103.924 307.328 103.861 307.664 103.799 308Z" fill="#8E887E" fill-opacity="0.24"/>
<path d="M74.2485 308H63.627C63.6285 307.989 63.6301 307.978 63.6317 307.967C63.7176 307.369 63.7333 306.022 63.7525 304.369C63.8049 299.876 63.8836 293.118 65.4703 292.999C65.0034 292.566 66.3145 292.525 67.3724 292.492C67.8411 292.477 68.2601 292.463 68.4534 292.418C69.1995 292.245 73.5376 291.47 74.2366 292.12C75.1449 292.965 74.6755 297.76 74.3955 300.625C74.3061 301.538 74.2366 302.256 74.2366 302.585C74.2366 303.813 74.2399 305.048 74.2439 306.289C74.2452 306.858 74.2472 307.428 74.2485 308Z" fill="#8E887E" fill-opacity="0.24"/>
<path d="M52.6221 308H43.9062C43.9104 307.927 43.9144 307.855 43.9186 307.781C44.1824 303.068 44.5465 296.564 46.2959 296.793C46.1238 296.793 51.9713 296.729 52.6221 297.334C53.0963 297.776 52.8425 300.654 52.699 302.282C52.6555 302.774 52.6221 303.153 52.6221 303.314V308Z" fill="#8E887E" fill-opacity="0.24"/>
<path d="M33.0947 308H19.3409C19.6367 306.206 19.8784 304.411 19.8784 302.629C19.8784 302.186 19.6115 300.894 19.3558 299.657C19.0275 298.069 18.7177 296.57 19.0161 297.075C19.0161 297.842 22.7468 297.554 26.3254 297.278C29.3522 297.044 32.2702 296.82 32.73 297.248C33.6265 298.081 33.3405 301.51 33.1557 303.727C33.0987 304.411 33.0513 304.979 33.0513 305.32C33.0513 306.202 33.0683 307.096 33.0947 308Z" fill="#8E887E" fill-opacity="0.24"/>
<path d="M6.75353 308H0V298.259C2.8382 298.03 5.96496 298.006 6.43155 298.874C7.18747 300.279 7.00707 303.152 6.85739 305.535C6.80311 306.4 6.75286 307.201 6.75286 307.843C6.75286 307.895 6.75306 307.947 6.75353 308Z" fill="#8E887E" fill-opacity="0.24"/>
<path d="M0 275.022V242.391C2.8382 242.162 5.96496 242.138 6.43155 243.007C7.18747 244.412 7.00707 247.284 6.85739 249.667C6.80311 250.532 6.75286 251.333 6.75286 251.975C6.75286 253.545 6.95994 255.625 7.1876 257.911C7.82623 264.324 8.62632 272.359 5.46769 275.297C4.89948 275.826 2.60578 275.444 1.04439 275.184C0.629008 275.116 0.265451 275.055 0 275.022Z" fill="#8E887E" fill-opacity="0.24"/>
<path d="M0 223.084V188.276C0.743784 187.869 1.62446 187.508 2.00309 187.649C2.91585 187.988 3.9099 188.15 4.85666 188.303C6.55447 188.578 8.10017 188.828 8.75224 190.04C9.33367 191.124 9.09356 193.441 8.90251 195.285C8.82314 196.051 8.75224 196.735 8.75224 197.215C8.75224 198.389 8.83909 199.966 8.93852 201.771C9.32897 208.859 9.91285 219.457 6.18195 222.93C5.6899 223.387 2.9872 223.348 0 223.084Z" fill="#8E887E" fill-opacity="0.24"/>
<path d="M0 174.814V142.182C2.8382 141.953 5.96496 141.929 6.43155 142.798C7.18747 144.203 7.00707 147.075 6.85739 149.458C6.80311 150.323 6.75286 151.124 6.75286 151.766C6.75286 153.336 6.95994 155.416 7.1876 157.702C7.82623 164.115 8.62632 172.15 5.46769 175.088C4.89948 175.617 2.60578 175.236 1.04439 174.976C0.629008 174.907 0.265451 174.846 0 174.814Z" fill="#8E887E" fill-opacity="0.24"/>
<path d="M0 118.951V86.3193C2.8382 86.0902 5.96496 86.0662 6.43155 86.9347C7.18747 88.3398 7.00707 91.2128 6.85739 93.5955C6.80311 94.4604 6.75286 95.2612 6.75286 95.9037C6.75286 97.4733 6.95994 99.5535 7.1876 101.839C7.82623 108.253 8.62632 116.287 5.46769 119.225C4.89948 119.755 2.60578 119.373 1.04439 119.113C0.629008 119.044 0.265451 118.983 0 118.951Z" fill="#8E887E" fill-opacity="0.24"/>
<path d="M0 71.1598V36.3523C0.743784 35.9451 1.62446 35.5839 2.00309 35.725C2.91585 36.0647 3.9099 36.2257 4.85666 36.3791C6.55447 36.654 8.10017 36.9044 8.75224 38.1167C9.33367 39.2 9.09356 41.5175 8.90251 43.3614C8.82314 44.1275 8.75224 44.8118 8.75224 45.2918C8.75224 46.4658 8.83909 48.0425 8.93852 49.8467C9.32897 56.935 9.91285 67.5334 6.18195 71.0064C5.6899 71.4635 2.9872 71.4247 0 71.1598Z" fill="#8E887E" fill-opacity="0.24"/>
</svg>
